<svg width="32" height="32" viewBox="0 0 32 32" fill="none" xmlns="http://www.w3.org/2000/svg">
<g clip-path="url(#clip0_4883_339)">
<path d="M10.1979 18.2511C9.89782 17.9512 9.49093 17.7827 9.06667 17.7827C8.6424 17.7827 8.23551 17.9512 7.93547 18.2511C7.6735 18.5151 7.51282 18.8629 7.4816 19.2335C7.29955 19.2128 7.11655 19.2016 6.93333 19.1999C5.81304 19.1984 4.7208 19.5502 3.81196 20.2053C2.90312 20.8603 2.22396 21.7853 1.87107 22.8485C1.51819 23.9118 1.50954 25.0593 1.84637 26.1277C2.18319 27.1962 2.84834 28.1313 3.7472 28.7999H1.6C1.17565 28.7999 0.768687 28.9685 0.468629 29.2685C0.168571 29.5686 0 29.9756 0 30.3999C0 30.8243 0.168571 31.2312 0.468629 31.5313C0.768687 31.8313 1.17565 31.9999 1.6 31.9999H30.4C30.8243 31.9999 31.2313 31.8313 31.5314 31.5313C31.8314 31.2312 32 30.8243 32 30.3999C32 29.9756 31.8314 29.5686 31.5314 29.2685C31.2313 28.9685 30.8243 28.7999 30.4 28.7999H28.3733L29.7877 21.2591C30.1557 21.1502 30.4721 20.9124 30.6789 20.5892C30.8858 20.266 30.9692 19.8791 30.914 19.4994C30.8588 19.1197 30.6687 18.7726 30.3784 18.5217C30.088 18.2708 29.717 18.1329 29.3333 18.1332C29.3328 17.6604 29.1755 17.201 28.8859 16.8271C28.5964 16.4532 28.191 16.186 27.7333 16.0671V15.9999C27.7327 15.4347 27.5525 14.8842 27.2188 14.4281C26.885 13.9719 26.4149 13.6336 25.8764 13.462C25.3378 13.2903 24.7586 13.2943 24.2225 13.4732C23.6863 13.6522 23.2209 13.9968 22.8933 14.4575C22.6196 14.3928 22.3357 14.3827 22.058 14.4279C21.7804 14.4732 21.5144 14.5728 21.2753 14.721C21.0362 14.8693 20.8288 15.0633 20.6648 15.2919C20.5009 15.5205 20.3837 15.7792 20.32 16.0532C19.8501 16.1624 19.431 16.4274 19.1308 16.8051C18.8306 17.1827 18.667 17.6508 18.6667 18.1332C18.2828 18.1324 17.9114 18.2699 17.6207 18.5206C17.33 18.7714 17.1394 19.1185 17.084 19.4984C17.0285 19.8782 17.1118 20.2654 17.3187 20.5888C17.5255 20.9122 17.842 21.1502 18.2101 21.2591L19.6267 28.7999H16C15.9992 27.9515 15.6617 27.138 15.0618 26.5381C14.4619 25.9382 13.6484 25.6008 12.8 25.5999H12.1547C12.2701 25.0697 12.2966 24.5239 12.2331 23.985C12.5351 23.9578 12.8232 23.845 13.0634 23.6598C13.3036 23.4746 13.4859 23.2248 13.589 22.9395C13.6921 22.6543 13.7117 22.3456 13.6454 22.0496C13.5792 21.7537 13.4298 21.4827 13.2149 21.2687L12.8379 20.8916L30.9979 2.73165C31.1484 2.58354 31.2682 2.40708 31.3503 2.21245C31.4323 2.01782 31.475 1.80888 31.4759 1.59767C31.4768 1.38646 31.4358 1.17717 31.3554 0.981858C31.275 0.786551 31.1567 0.609096 31.0074 0.459729C30.8581 0.310363 30.6806 0.192041 30.4853 0.111588C30.2901 0.0311353 30.0808 -0.00985574 29.8696 -0.0090207C29.6583 -0.00818565 29.4494 0.0344589 29.2547 0.116453C29.0601 0.198448 28.8836 0.318169 28.7355 0.468712L10.5755 18.6287L10.1979 18.2511ZM20.8 17.0666C20.9415 17.0666 21.0771 17.0104 21.1771 16.9104C21.2771 16.8104 21.3333 16.6747 21.3333 16.5332C21.3332 16.3504 21.3801 16.1706 21.4696 16.0111C21.559 15.8516 21.6879 15.7177 21.844 15.6224C22 15.5271 22.1779 15.4735 22.3607 15.4667C22.5434 15.46 22.7248 15.5003 22.8875 15.5839C22.9516 15.6168 23.0218 15.6363 23.0937 15.6413C23.1656 15.6463 23.2378 15.6367 23.3059 15.613C23.374 15.5894 23.4366 15.5521 23.4899 15.5036C23.5432 15.455 23.5861 15.3962 23.616 15.3306C23.7695 15.0007 24.0308 14.733 24.3568 14.5716C24.6829 14.4102 25.0542 14.3647 25.4096 14.4427C25.7649 14.5207 26.0831 14.7174 26.3116 15.0005C26.5402 15.2836 26.6654 15.6361 26.6667 15.9999C26.6658 16.1379 26.6479 16.2753 26.6133 16.409C26.5921 16.4938 26.592 16.5824 26.6131 16.6673C26.6342 16.7521 26.6759 16.8304 26.7343 16.8953C26.7928 16.9603 26.8663 17.0099 26.9485 17.0397C27.0306 17.0696 27.1188 17.0788 27.2053 17.0666C27.4873 17.068 27.7572 17.181 27.9561 17.3809C28.155 17.5808 28.2667 17.8513 28.2667 18.1332H19.7333C19.7333 17.8504 19.8457 17.579 20.0458 17.379C20.2458 17.179 20.5171 17.0666 20.8 17.0666ZM18.6667 19.1999H29.3333C29.4748 19.1999 29.6104 19.2561 29.7105 19.3561C29.8105 19.4561 29.8667 19.5918 29.8667 19.7332C29.8667 19.8747 29.8105 20.0104 29.7105 20.1104C29.6104 20.2104 29.4748 20.2666 29.3333 20.2666H18.6667C18.5252 20.2666 18.3896 20.2104 18.2895 20.1104C18.1895 20.0104 18.1333 19.8747 18.1333 19.7332C18.1333 19.5918 18.1895 19.4561 18.2895 19.3561C18.3896 19.2561 18.5252 19.1999 18.6667 19.1999ZM19.3067 21.3333H28.6933L27.2907 28.7999H20.7093L19.3067 21.3333ZM20.2667 29.8666H30.4C30.5415 29.8666 30.6771 29.9228 30.7771 30.0228C30.8771 30.1228 30.9333 30.2585 30.9333 30.3999C30.9333 30.5414 30.8771 30.677 30.7771 30.777C30.6771 30.8771 30.5415 30.9333 30.4 30.9333H1.6C1.45855 30.9333 1.3229 30.8771 1.22288 30.777C1.12286 30.677 1.06667 30.5414 1.06667 30.3999C1.06667 30.2585 1.12286 30.1228 1.22288 30.0228C1.3229 29.9228 1.45855 29.8666 1.6 29.8666H20.2667ZM10.1333 25.5999C9.99189 25.5999 9.85623 25.6561 9.75621 25.7561C9.65619 25.8561 9.6 25.9918 9.6 26.1332C9.6 26.2747 9.65619 26.4104 9.75621 26.5104C9.85623 26.6104 9.99189 26.6666 10.1333 26.6666H12.8C13.3658 26.6666 13.9084 26.8913 14.3085 27.2914C14.7086 27.6915 14.9333 28.2341 14.9333 28.7999H6.93333C5.80174 28.7999 4.7165 28.3504 3.91634 27.5502C3.11619 26.7501 2.66667 25.6648 2.66667 24.5333C2.66667 23.4017 3.11619 22.3164 3.91634 21.5163C4.7165 20.7161 5.80174 20.2666 6.93333 20.2666C7.22943 20.2695 7.52446 20.3026 7.81387 20.3652C7.8512 20.4175 7.89173 20.4666 7.93547 20.514L10.952 23.5311C10.9995 23.5748 11.0491 23.6154 11.1013 23.6532C11.1641 23.9425 11.1972 24.2373 11.2 24.5333C11.2 24.8932 11.1547 25.2516 11.064 25.5999H10.1333ZM12.4608 22.777C12.4113 22.8266 12.3524 22.8659 12.2877 22.8927C12.223 22.9196 12.1536 22.9334 12.0835 22.9334C12.0134 22.9334 11.944 22.9196 11.8792 22.8927C11.8145 22.8659 11.7557 22.8266 11.7061 22.777L8.6896 19.7599C8.59245 19.6593 8.53869 19.5246 8.53991 19.3848C8.54112 19.2449 8.59721 19.1112 8.6961 19.0123C8.79498 18.9134 8.92875 18.8573 9.06859 18.8561C9.20842 18.8549 9.34315 18.9086 9.44373 19.0058L10.1973 19.7594L10.6501 20.2122L12.4603 22.0223C12.5603 22.1223 12.6164 22.258 12.6164 22.3994C12.6164 22.5408 12.5603 22.6764 12.4603 22.7765L12.4608 22.777ZM29.4896 1.22285C29.5388 1.17191 29.5977 1.13128 29.6627 1.10332C29.7278 1.07537 29.7978 1.06066 29.8686 1.06004C29.9394 1.05943 30.0096 1.07292 30.0752 1.09974C30.1407 1.12656 30.2003 1.16616 30.2503 1.21623C30.3004 1.26631 30.34 1.32586 30.3668 1.3914C30.3937 1.45695 30.4072 1.52718 30.4065 1.59799C30.4059 1.66881 30.3912 1.73879 30.3633 1.80386C30.3353 1.86893 30.2947 1.92778 30.2437 1.97698L12.0837 20.137L11.8741 19.9279L11.3296 19.3828L29.4896 1.22285Z" fill="black"/>
<path d="M22.4 22.4H21.3333C21.1919 22.4 21.0562 22.4562 20.9562 22.5562C20.8562 22.6562 20.8 22.7919 20.8 22.9333C20.8 23.0748 20.8562 23.2104 20.9562 23.3105C21.0562 23.4105 21.1919 23.4667 21.3333 23.4667H22.4C22.5415 23.4667 22.6771 23.4105 22.7771 23.3105C22.8771 23.2104 22.9333 23.0748 22.9333 22.9333C22.9333 22.7919 22.8771 22.6562 22.7771 22.5562C22.6771 22.4562 22.5415 22.4 22.4 22.4ZM26.1333 22.4H24.5333C24.3919 22.4 24.2562 22.4562 24.1562 22.5562C24.0562 22.6562 24 22.7919 24 22.9333C24 23.0748 24.0562 23.2104 24.1562 23.3105C24.2562 23.4105 24.3919 23.4667 24.5333 23.4667H26.1333C26.2748 23.4667 26.4104 23.4105 26.5105 23.3105C26.6105 23.2104 26.6667 23.0748 26.6667 22.9333C26.6667 22.7919 26.6105 22.6562 26.5105 22.5562C26.4104 22.4562 26.2748 22.4 26.1333 22.4ZM29.8667 14.9333C30.0768 14.9333 30.2848 14.8919 30.479 14.8115C30.6731 14.7311 30.8495 14.6133 30.998 14.4647C31.1466 14.3161 31.2645 14.1397 31.3449 13.9456C31.4253 13.7515 31.4667 13.5434 31.4667 13.3333C31.4667 13.1232 31.4253 12.9152 31.3449 12.721C31.2645 12.5269 31.1466 12.3505 30.998 12.202C30.8495 12.0534 30.6731 11.9355 30.479 11.8551C30.2848 11.7747 30.0768 11.7333 29.8667 11.7333C29.4423 11.7333 29.0354 11.9019 28.7353 12.202C28.4352 12.502 28.2667 12.909 28.2667 13.3333C28.2667 13.7577 28.4352 14.1646 28.7353 14.4647C29.0354 14.7648 29.4423 14.9333 29.8667 14.9333ZM29.8667 12.8C30.0081 12.8 30.1438 12.8562 30.2438 12.9562C30.3438 13.0562 30.4 13.1919 30.4 13.3333C30.4 13.4748 30.3438 13.6104 30.2438 13.7105C30.1438 13.8105 30.0081 13.8667 29.8667 13.8667C29.7252 13.8667 29.5896 13.8105 29.4895 13.7105C29.3895 13.6104 29.3333 13.4748 29.3333 13.3333C29.3333 13.1919 29.3895 13.0562 29.4895 12.9562C29.5896 12.8562 29.7252 12.8 29.8667 12.8ZM27.2 8.53333C26.7757 8.53333 26.3687 8.7019 26.0686 9.00196C25.7686 9.30202 25.6 9.70899 25.6 10.1333C25.6 10.5577 25.7686 10.9646 26.0686 11.2647C26.3687 11.5648 26.7757 11.7333 27.2 11.7333C27.6243 11.7333 28.0313 11.5648 28.3314 11.2647C28.6314 10.9646 28.8 10.5577 28.8 10.1333C28.8 9.70899 28.6314 9.30202 28.3314 9.00196C28.0313 8.7019 27.6243 8.53333 27.2 8.53333ZM27.2 10.6667C27.0586 10.6667 26.9229 10.6105 26.8229 10.5105C26.7229 10.4104 26.6667 10.2748 26.6667 10.1333C26.6667 9.99189 26.7229 9.85623 26.8229 9.75621C26.9229 9.65619 27.0586 9.6 27.2 9.6C27.3414 9.6 27.4771 9.65619 27.5771 9.75621C27.6771 9.85623 27.7333 9.99189 27.7333 10.1333C27.7333 10.2748 27.6771 10.4104 27.5771 10.5105C27.4771 10.6105 27.3414 10.6667 27.2 10.6667ZM14.3952 4.72348e-08C14.2564 -5.8334e-05 14.123 0.054004 14.0234 0.150702C13.9239 0.247401 13.8659 0.379116 13.8619 0.517867V0.533333C13.8619 0.7296 13.8133 5.33333 9.58987 5.33333C9.44842 5.33333 9.31276 5.38952 9.21274 5.48954C9.11272 5.58956 9.05653 5.72522 9.05653 5.86667C9.05653 6.00812 9.11272 6.14377 9.21274 6.24379C9.31276 6.34381 9.44842 6.4 9.58987 6.4C13.7968 6.4 13.8613 11.0048 13.8619 11.2C13.86 11.3414 13.9143 11.4779 14.013 11.5792C14.1117 11.6806 14.2466 11.7386 14.388 11.7405C14.5295 11.7424 14.6659 11.6881 14.7672 11.5894C14.8686 11.4907 14.9266 11.3558 14.9285 11.2144V11.2C14.9285 11.0037 14.9771 6.4 19.2 6.4C19.3414 6.4 19.4771 6.34381 19.5771 6.24379C19.6771 6.14377 19.7333 6.00812 19.7333 5.86667C19.7333 5.72522 19.6771 5.58956 19.5771 5.48954C19.4771 5.38952 19.3414 5.33333 19.2 5.33333C15.0027 5.33333 14.9296 0.746667 14.9285 0.533333C14.9285 0.391885 14.8723 0.256229 14.7723 0.15621C14.6723 0.0561904 14.5366 4.72348e-08 14.3952 4.72348e-08ZM16.7691 5.86667C15.6769 6.44278 14.8328 7.39789 14.3952 8.55253C13.9576 7.39789 13.1135 6.44278 12.0213 5.86667C13.1135 5.29055 13.9576 4.33544 14.3952 3.1808C14.8328 4.33544 15.6769 5.29055 16.7691 5.86667ZM3.2 16.0027V16.0059C3.20078 16.1473 3.25771 16.2827 3.35828 16.3821C3.45885 16.4816 3.59482 16.537 3.73627 16.5363C3.87772 16.5355 4.01306 16.4786 4.11253 16.378C4.212 16.2774 4.26745 16.1414 4.26667 16C4.26667 15.8693 4.31147 12.8 6.93333 12.8C7.07478 12.8 7.21044 12.7438 7.31046 12.6438C7.41048 12.5438 7.46667 12.4081 7.46667 12.2667C7.46667 12.1252 7.41048 11.9896 7.31046 11.8895C7.21044 11.7895 7.07478 11.7333 6.93333 11.7333C4.31147 11.7333 4.26667 8.66293 4.26667 8.53333V8.53013C4.26624 8.38869 4.20965 8.2532 4.10933 8.15348C4.00901 8.05376 3.87318 7.99798 3.73173 7.9984C3.59028 7.99882 3.4548 8.05542 3.35508 8.15574C3.25536 8.25606 3.19958 8.39188 3.2 8.53333C3.2 8.664 3.1552 11.7333 0.533333 11.7333C0.391885 11.7333 0.256229 11.7895 0.15621 11.8895C0.0561903 11.9896 0 12.1252 0 12.2667C0 12.4081 0.0561903 12.5438 0.15621 12.6438C0.256229 12.7438 0.391885 12.8 0.533333 12.8C3.1552 12.8 3.2 15.8704 3.2 16V16.0027ZM2.4832 12.2667C3.02335 11.9066 3.45546 11.4064 3.73333 10.8197C4.0112 11.4064 4.44332 11.9066 4.98347 12.2667C4.44342 12.6269 4.01134 13.127 3.73333 13.7136C3.45533 13.127 3.02324 12.6269 2.4832 12.2667ZM5.75627 4.37707L6.55627 5.17707C6.65686 5.27422 6.79158 5.32797 6.93141 5.32676C7.07125 5.32554 7.20502 5.26945 7.3039 5.17057C7.40279 5.07169 7.45888 4.93792 7.46009 4.79808C7.46131 4.65824 7.40755 4.52352 7.3104 4.42293L6.5104 3.62293C6.4612 3.57199 6.40235 3.53136 6.33728 3.50341C6.27221 3.47546 6.20223 3.46075 6.13141 3.46013C6.0606 3.45952 5.99037 3.47301 5.92482 3.49983C5.85928 3.52664 5.79973 3.56625 5.74966 3.61632C5.69958 3.6664 5.65998 3.72595 5.63316 3.79149C5.60635 3.85704 5.59285 3.92727 5.59347 3.99808C5.59408 4.0689 5.60879 4.13888 5.63675 4.20395C5.6647 4.26902 5.70533 4.32787 5.75627 4.37707ZM4.15627 2.77707C4.25686 2.87422 4.39158 2.92797 4.53141 2.92676C4.67125 2.92554 4.80502 2.86945 4.9039 2.77057C5.00279 2.67169 5.05888 2.53792 5.06009 2.39808C5.06131 2.25824 5.00755 2.12352 4.9104 2.02293L4.1104 1.22293C4.00981 1.12578 3.87509 1.07203 3.73525 1.07324C3.59541 1.07446 3.46165 1.13055 3.36276 1.22943C3.26388 1.32831 3.20779 1.46208 3.20657 1.60192C3.20536 1.74176 3.25912 1.87648 3.35627 1.97707L4.15627 2.77707ZM3.35627 5.17707C3.45628 5.27705 3.59191 5.33322 3.73333 5.33322C3.87475 5.33322 4.01039 5.27705 4.1104 5.17707L4.9104 4.37707C5.00755 4.27648 5.06131 4.14176 5.06009 4.00192C5.05888 3.86208 5.00279 3.72831 4.9039 3.62943C4.80502 3.53055 4.67125 3.47446 4.53141 3.47324C4.39158 3.47203 4.25686 3.52578 4.15627 3.62293L3.35627 4.42293C3.25628 4.52295 3.20011 4.65858 3.20011 4.8C3.20011 4.94142 3.25628 5.07705 3.35627 5.17707ZM6.13333 2.93333C6.27477 2.9333 6.4104 2.87709 6.5104 2.77707L7.3104 1.97707C7.36134 1.92787 7.40197 1.86902 7.42992 1.80395C7.45787 1.73888 7.47259 1.6689 7.4732 1.59808C7.47382 1.52727 7.46032 1.45704 7.43351 1.39149C7.40669 1.32595 7.36709 1.2664 7.31701 1.21632C7.26693 1.16625 7.20739 1.12664 7.14184 1.09983C7.0763 1.07301 7.00607 1.05952 6.93525 1.06013C6.86444 1.06075 6.79445 1.07546 6.72938 1.10341C6.66432 1.13136 6.60547 1.17199 6.55627 1.22293L5.75627 2.02293C5.6817 2.09752 5.63093 2.19254 5.61036 2.29598C5.58979 2.39942 5.60035 2.50664 5.64071 2.60408C5.68106 2.70152 5.7494 2.78481 5.83709 2.84341C5.92477 2.90202 6.02787 2.93331 6.13333 2.93333Z" fill="black"/>
</g>
<defs>
<clipPath id="clip0_4883_339">
<rect width="32" height="32" fill="white"/>
</clipPath>
</defs>
</svg>
