<svg width="32" height="32" viewBox="0 0 32 32" fill="none" xmlns="http://www.w3.org/2000/svg">
<g clip-path="url(#clip0_4883_331)">
<path d="M30 6.5H29.5V1.5C29.5 0.9485 29.0515 0.5 28.5 0.5H24.5C23.9485 0.5 23.5 0.9485 23.5 1.5V6.5H22.408C22.464 6.343 22.5 6.176 22.5 6C22.4987 5.62979 22.3597 5.27331 22.11 5C22.3597 4.72669 22.4987 4.37021 22.5 4V2C22.5 1.173 21.827 0.5 21 0.5H12C11.173 0.5 10.5 1.173 10.5 2V4C10.5 4.3855 10.6505 4.734 10.89 5C10.6401 5.2732 10.5011 5.62976 10.5 6C10.5 6.176 10.536 6.343 10.592 6.5H10C9.173 6.5 8.5 7.173 8.5 8V12.5255C8.334 12.5145 8.169 12.5 8 12.5C4.7375 12.5 1.826 14.6495 0.85 17.746C0.740745 17.839 0.652899 17.9546 0.592487 18.0847C0.532074 18.2148 0.500524 18.3565 0.5 18.5V21.5C0.5 21.802 0.6375 22.0705 0.8505 22.254C1.8265 25.3505 4.7375 27.5 8 27.5C8.169 27.5 8.334 27.4855 8.5 27.4745V30C8.5 30.827 9.173 31.5 10 31.5H30C30.827 31.5 31.5 30.827 31.5 30V8C31.5 7.173 30.827 6.5 30 6.5ZM24.5 1.5H28.5V6.5H27.707L25.8535 4.6465L25.1465 5.3535L26.293 6.5H24.5V1.5ZM11.5 2C11.5 1.7245 11.724 1.5 12 1.5H21C21.276 1.5 21.5 1.7245 21.5 2V4C21.5 4.2755 21.276 4.5 21 4.5H12C11.724 4.5 11.5 4.2755 11.5 4V2ZM11.5 6C11.5 5.7245 11.724 5.5 12 5.5H21C21.1287 5.50576 21.2503 5.56095 21.3394 5.65409C21.4284 5.74723 21.4781 5.87113 21.4781 6C21.4781 6.12887 21.4284 6.25277 21.3394 6.34591C21.2503 6.43905 21.1287 6.49424 21 6.5H12C11.724 6.5 11.5 6.2755 11.5 6ZM10 7.5H30C30.276 7.5 30.5 7.7245 30.5 8V10.5H9.5V8C9.5 7.7245 9.724 7.5 10 7.5ZM2.5005 20.0095L2.501 21.5H1.5V18.5H2.5L2.5005 19.9905L2.5 20L2.5005 20.0095ZM2.004 22.5H2.5C2.696 22.5 2.8775 22.4415 3.0315 22.3435C3.914 24.206 5.806 25.5 8 25.5C11.0325 25.5 13.5 23.0325 13.5 20C13.5 16.9675 11.0325 14.5 8 14.5C5.806 14.5 3.914 15.794 3.0315 17.6565C2.87293 17.5546 2.68848 17.5003 2.5 17.5H2.004C3.002 15.114 5.3685 13.5 8 13.5C11.584 13.5 14.5 16.416 14.5 20C14.5 23.584 11.584 26.5 8 26.5C5.3685 26.5 3.002 24.886 2.004 22.5ZM8 15.5C10.4815 15.5 12.5 17.5185 12.5 20C12.5 22.4815 10.4815 24.5 8 24.5C5.5185 24.5 3.5 22.4815 3.5 20C3.5 17.5185 5.5185 15.5 8 15.5ZM22.987 27.856L22.497 23.445L21.503 23.5555L21.9695 27.753L20.916 28.4555C20.7505 28.566 20.5 28.433 20.5 28.2325V22.5H19.5V27.1935C18.7131 26.9096 17.8521 26.9079 17.064 27.1885L17.4285 22.45C17.4648 21.9807 17.6677 21.5398 18.0005 21.207C18.268 20.9405 18.733 20.9405 19.0005 21.207L19.025 21.2315L18.304 21.5405L18.6975 22.4595L21.622 21.2065C21.9394 21.0698 22.2814 20.9995 22.627 21C22.8714 21.0003 23.1085 21.0833 23.2998 21.2354C23.491 21.3876 23.6252 21.5999 23.6805 21.838L24.9825 27.48C25.0215 27.6492 24.9959 27.8269 24.9108 27.9782C24.8258 28.1296 24.6873 28.2438 24.5225 28.2985L24.038 28.4595C23.6815 28.581 23.264 28.4095 23.093 28.067L22.987 27.856ZM24.383 20.9865C24.1841 20.6595 23.8986 20.3941 23.558 20.2195C23.2687 20.0757 22.9501 20.0005 22.627 20C22.143 20 21.672 20.0965 21.227 20.2875L20.0145 20.807L19.707 20.5C19.0625 19.8555 17.9375 19.8555 17.293 20.5C16.7918 21.0017 16.4861 21.6659 16.431 22.373L16.4055 22.704C15.8175 21.9252 15.4996 20.9758 15.5 20C15.5 17.5185 17.5185 15.5 20 15.5C22.4815 15.5 24.5 17.5185 24.5 20C24.5 20.3335 24.4555 20.6635 24.383 20.9865ZM16.3015 24.06L16.208 25.2755C15.5705 24.8126 15.022 24.2382 14.589 23.58C14.7845 23.2215 14.945 22.842 15.0805 22.4515C15.3846 23.0585 15.7986 23.6039 16.3015 24.06ZM24.8685 22.54C25.2805 21.7565 25.4971 20.8852 25.5 20C25.5 16.9675 23.0325 14.5 20 14.5C17.847 14.5 15.9845 15.7465 15.082 17.5525C14.9493 17.1618 14.7842 16.7828 14.5885 16.4195C15.7975 14.591 17.7945 13.5 20 13.5C23.584 13.5 26.5 16.416 26.5 20C26.5 21.4335 26.034 22.7885 25.1845 23.9095L24.8685 22.54ZM30 30.5H10C9.86739 30.5 9.74021 30.4473 9.64645 30.3536C9.55268 30.2598 9.5 30.1326 9.5 30V27.349C11.3325 26.9755 12.9175 25.927 14 24.481C14.5772 25.2519 15.2973 25.9046 16.121 26.4035L15.9335 28.843L17.1115 28.253C17.4846 28.0677 17.8967 27.9745 18.3132 27.9812C18.7297 27.9879 19.1386 28.0943 19.5055 28.2915C19.5205 28.6164 19.6599 28.9231 19.8949 29.1481C20.1298 29.3731 20.4422 29.4991 20.7675 29.5C21.0185 29.5 21.2615 29.4265 21.4705 29.287L22.319 28.721C22.4817 28.9618 22.7012 29.1588 22.9581 29.2947C23.215 29.4305 23.5014 29.5011 23.792 29.5C23.985 29.5 24.175 29.469 24.3555 29.408L24.839 29.247C25.2399 29.1137 25.5767 28.8356 25.7834 28.467C25.9901 28.0985 26.0518 27.6661 25.9565 27.2545L25.4645 25.1235C26.775 23.729 27.5 21.9245 27.5 20C27.5 15.8645 24.1355 12.5 20 12.5C17.599 12.5 15.4065 13.6145 13.9945 15.5115C12.912 14.0695 11.3295 13.024 9.5 12.651V11.5H30.5V30C30.5 30.1326 30.4473 30.2598 30.3536 30.3536C30.2598 30.4473 30.1326 30.5 30 30.5Z" fill="black"/>
<path d="M14 2.49993H20.5V3.49993H14V2.49993ZM25.1435 2.85593L25.8505 2.14893L28.3505 4.64893L27.643 5.35543L25.1435 2.85593ZM11.5 8.49993H12.5V9.49993H11.5V8.49993ZM13.5 8.49993H14.5V9.49993H13.5V8.49993ZM15.5 8.49993H16.5V9.49993H15.5V8.49993ZM19.5 8.49993H22.5V9.49993H19.5V8.49993ZM23.5 8.49993H27.5V9.49993H23.5V8.49993Z" fill="black"/>
</g>
<defs>
<clipPath id="clip0_4883_331">
<rect width="32" height="32" fill="white"/>
</clipPath>
</defs>
</svg>
