<svg width="32" height="32" viewBox="0 0 32 32" fill="none" xmlns="http://www.w3.org/2000/svg">
<g clip-path="url(#clip0_4883_319)">
<path d="M18.5 31H13V19.5C13 19.3674 13.0527 19.2402 13.1464 19.1464C13.2402 19.0527 13.3674 19 13.5 19H16.5C16.6326 19 16.7598 18.9473 16.8536 18.8536C16.9473 18.7598 17 18.6326 17 18.5C17 18.3674 16.9473 18.2402 16.8536 18.1464C16.7598 18.0527 16.6326 18 16.5 18H13.5C13.1022 18 12.7206 18.158 12.4393 18.4393C12.158 18.7206 12 19.1022 12 19.5V31H8.722C8.90196 30.6973 8.99793 30.3521 9 30C9 29.4696 8.78929 28.9609 8.41421 28.5858C8.03914 28.2107 7.53043 28 7 28C6.84359 28 6.68776 28.0191 6.536 28.057C6.30625 27.7305 6.00134 27.464 5.64699 27.2801C5.29264 27.0961 4.89925 27.0001 4.5 27.0001C4.10075 27.0001 3.70736 27.0961 3.35301 27.2801C2.99866 27.464 2.69375 27.7305 2.464 28.057C2.31223 28.0192 2.15641 28 2 28C1.46957 28 0.960859 28.2107 0.585786 28.5858C0.210714 28.9609 0 29.4696 0 30C0 30.5304 0.210714 31.0391 0.585786 31.4142C0.960859 31.7893 1.46957 32 2 32H18.5C18.6326 32 18.7598 31.9473 18.8536 31.8536C18.9473 31.7598 19 31.6326 19 31.5C19 31.3674 18.9473 31.2402 18.8536 31.1464C18.7598 31.0527 18.6326 31 18.5 31ZM7 31H2C1.8476 31.002 1.69675 30.9692 1.55898 30.904C1.42121 30.8388 1.30017 30.743 1.2051 30.6238C1.11003 30.5047 1.04346 30.3654 1.01046 30.2166C0.977455 30.0678 0.978905 29.9134 1.0147 29.7653C1.05049 29.6171 1.11967 29.4791 1.21696 29.3618C1.31425 29.2444 1.43707 29.1509 1.57604 29.0883C1.71501 29.0257 1.86644 28.9957 2.01878 29.0006C2.17112 29.0055 2.32033 29.0451 2.455 29.1165C2.51516 29.1475 2.581 29.166 2.64851 29.1708C2.71602 29.1756 2.78381 29.1667 2.84776 29.1445C2.91171 29.1223 2.9705 29.0874 3.02057 29.0419C3.07063 28.9963 3.11092 28.9411 3.139 28.8795C3.25716 28.6175 3.44843 28.3952 3.68985 28.2392C3.93128 28.0832 4.21258 28.0003 4.5 28.0003C4.78742 28.0003 5.06872 28.0832 5.31015 28.2392C5.55157 28.3952 5.74284 28.6175 5.861 28.8795C5.88908 28.9411 5.92937 28.9963 5.97943 29.0419C6.0295 29.0874 6.08829 29.1223 6.15224 29.1445C6.21619 29.1667 6.28398 29.1756 6.35149 29.1708C6.419 29.166 6.48484 29.1475 6.545 29.1165C6.67929 29.047 6.82762 29.009 6.97877 29.0053C7.12992 29.0016 7.27993 29.0323 7.41747 29.0951C7.55501 29.1579 7.67648 29.2511 7.7727 29.3677C7.86892 29.4843 7.93737 29.6213 7.97287 29.7683C8.00837 29.9152 8.01 30.0684 7.97763 30.216C7.94527 30.3637 7.87975 30.5021 7.78604 30.6208C7.69233 30.7394 7.57287 30.8352 7.43669 30.9009C7.30052 30.9666 7.15119 31.0005 7 31Z" fill="black"/>
<path d="M10.5 25C10.6326 25 10.7598 24.9473 10.8536 24.8536C10.9473 24.7598 11 24.6326 11 24.5V18.5C11 18.3674 10.9473 18.2402 10.8536 18.1464C10.7598 18.0527 10.6326 18 10.5 18H4.5C4.36739 18 4.24021 18.0527 4.14645 18.1464C4.05268 18.2402 4 18.3674 4 18.5V24.5C4 24.6326 4.05268 24.7598 4.14645 24.8536C4.24021 24.9473 4.36739 25 4.5 25H10.5ZM8 19H10V21H8V19ZM8 22H10V24H8V22ZM5 19H7V21H5V19ZM5 22H7V24H5V22Z" fill="black"/>
<path d="M18 26C18.2761 26 18.5 25.7761 18.5 25.5C18.5 25.2239 18.2761 25 18 25C17.7239 25 17.5 25.2239 17.5 25.5C17.5 25.7761 17.7239 26 18 26Z" fill="black"/>
<path d="M31.2219 22.9371L31.5674 22.5921C31.8443 22.3152 31.9999 21.9396 31.9999 21.5481C31.9999 21.1565 31.8443 20.781 31.5674 20.5041L31.2219 20.1586C31.1282 20.0648 31.001 20.0122 30.8684 20.0122C30.7359 20.0122 30.6087 20.0648 30.5149 20.1586L29.8244 20.8501C29.7801 20.8944 29.7276 20.9295 29.6697 20.9535C29.6118 20.9774 29.5498 20.9898 29.4872 20.9898C29.4246 20.9898 29.3625 20.9774 29.3047 20.9535C29.2468 20.9295 29.1942 20.8944 29.1499 20.8501C29.1056 20.8058 29.0705 20.7532 29.0465 20.6953C29.0226 20.6375 29.0102 20.5755 29.0102 20.5128C29.0102 20.4502 29.0226 20.3882 29.0465 20.3303C29.0705 20.2724 29.1056 20.2199 29.1499 20.1756L29.8404 19.4846C29.9342 19.3908 29.9868 19.2637 29.9868 19.1311C29.9868 18.9985 29.9342 18.8713 29.8404 18.7776L29.4949 18.4321C29.2178 18.1557 28.8423 18.0005 28.4509 18.0005C28.0595 18.0005 27.6841 18.1557 27.4069 18.4321L27.0619 18.7771C26.7268 19.1136 26.4966 19.5402 26.3995 20.0051C26.3024 20.47 26.3425 20.9531 26.5149 21.3956L25.0379 22.8731L24.5169 22.3521C24.6934 22.1101 24.8704 21.8696 25.0274 21.6101C25.2068 21.3156 25.2821 20.9694 25.2414 20.627C25.2007 20.2847 25.0463 19.9658 24.8029 19.7216L23.7144 18.6331C23.4702 18.3897 23.1514 18.2353 22.809 18.1946C22.4666 18.1539 22.1204 18.2293 21.8259 18.4086C21.5664 18.5656 21.3259 18.7426 21.0839 18.9191L20.6129 18.4481C20.3211 18.1698 19.9334 18.0146 19.5302 18.0146C19.127 18.0146 18.7392 18.1698 18.4474 18.4481C18.1607 18.7355 17.9997 19.1249 17.9997 19.5308C17.9997 19.9368 18.1607 20.3262 18.4474 20.6136L18.9184 21.0846C18.7419 21.3261 18.5649 21.5671 18.4079 21.8266C18.2286 22.1211 18.1533 22.4672 18.194 22.8096C18.2347 23.152 18.3891 23.4708 18.6324 23.7151L19.7209 24.8036C19.8632 24.9462 20.0323 25.0594 20.2184 25.1366C20.4045 25.2138 20.604 25.2536 20.8054 25.2536C21.0889 25.2533 21.3668 25.1756 21.6094 25.0291C21.8689 24.8721 22.1094 24.6951 22.3514 24.5186L22.8724 25.0391L21.3949 26.5166C20.9525 26.3439 20.4695 26.3036 20.0046 26.4008C19.5397 26.4979 19.1132 26.7282 18.7769 27.0636L18.4314 27.4086C18.1546 27.6855 17.999 28.061 17.999 28.4526C17.999 28.8441 18.1546 29.2197 18.4314 29.4966L18.7769 29.8421C18.8707 29.9358 18.9979 29.9885 19.1304 29.9885C19.263 29.9885 19.3902 29.9358 19.4839 29.8421L20.1754 29.1501C20.2197 29.1058 20.2723 29.0707 20.3302 29.0467C20.388 29.0227 20.4501 29.0104 20.5127 29.0104C20.5753 29.0104 20.6373 29.0227 20.6952 29.0467C20.7531 29.0707 20.8056 29.1058 20.8499 29.1501C20.8942 29.1944 20.9294 29.2469 20.9533 29.3048C20.9773 29.3627 20.9896 29.4247 20.9896 29.4873C20.9896 29.55 20.9773 29.612 20.9533 29.6698C20.9294 29.7277 20.8942 29.7803 20.8499 29.8246L20.1594 30.5156C20.0657 30.6093 20.013 30.7365 20.013 30.8691C20.013 31.0017 20.0657 31.1288 20.1594 31.2226L20.5049 31.5681C20.782 31.8446 21.1575 31.9999 21.5489 31.9999C21.9404 31.9999 22.3158 31.8446 22.5929 31.5681L22.9379 31.2231C23.2731 30.8866 23.5032 30.46 23.6003 29.9951C23.6975 29.5302 23.6574 29.0471 23.4849 28.6046L24.9624 27.1271L29.3869 31.5521C29.6765 31.8273 30.0622 31.9784 30.4616 31.9732C30.8611 31.968 31.2427 31.8069 31.525 31.5242C31.8073 31.2415 31.9679 30.8597 31.9726 30.4602C31.9772 30.0607 31.8256 29.6753 31.5499 29.3861L27.1249 24.9611L28.6024 23.4841C29.045 23.6574 29.5284 23.6979 29.9937 23.6008C30.4589 23.5036 30.8857 23.273 31.2219 22.9371ZM19.1559 19.1556C19.257 19.0592 19.3913 19.0055 19.5309 19.0055C19.6706 19.0055 19.8049 19.0592 19.9059 19.1556L20.3059 19.5556C20.0427 19.7919 19.7923 20.0423 19.5559 20.3056L19.1559 19.9056C19.0568 19.806 19.0011 19.6711 19.0011 19.5306C19.0011 19.39 19.0568 19.2552 19.1559 19.1556ZM21.0934 24.1721C20.9903 24.2358 20.8687 24.263 20.7482 24.2494C20.6277 24.2358 20.5153 24.1822 20.4289 24.0971L19.3404 23.0086C19.2553 22.9222 19.2017 22.8098 19.1881 22.6893C19.1745 22.5688 19.2017 22.4472 19.2654 22.3441C20.023 21.0806 21.0801 20.0233 22.3434 19.2656C22.4302 19.2131 22.5296 19.1853 22.6309 19.1851C22.701 19.1849 22.7704 19.1985 22.8352 19.2252C22.9 19.2519 22.9588 19.2911 23.0084 19.3406L24.0969 20.4291C24.1821 20.5155 24.2357 20.6281 24.2493 20.7486C24.2629 20.8692 24.2357 20.9908 24.1719 21.0941C23.4141 22.3573 22.3568 23.4144 21.0934 24.1721ZM22.5264 28.1501C22.448 28.2283 22.3978 28.3304 22.3837 28.4402C22.3696 28.5501 22.3924 28.6616 22.4484 28.7571C22.6122 29.0334 22.6796 29.3562 22.64 29.6749C22.6005 29.9936 22.4562 30.2902 22.2299 30.5181L21.8849 30.8631C21.7968 30.9509 21.6779 31.0009 21.5536 31.0024C21.4292 31.0039 21.3091 30.9568 21.2189 30.8711L21.5559 30.5346C21.6971 30.3984 21.8097 30.2355 21.8872 30.0553C21.9647 29.8752 22.0056 29.6814 22.0074 29.4853C22.0091 29.2891 21.9718 29.0946 21.8976 28.9131C21.8234 28.7316 21.7138 28.5666 21.5751 28.4279C21.4364 28.2892 21.2715 28.1795 21.09 28.1053C20.9085 28.031 20.714 27.9937 20.5179 27.9954C20.3217 27.9971 20.1279 28.0379 19.9477 28.1154C19.7676 28.1929 19.6046 28.3054 19.4684 28.4466L19.1314 28.7831C19.0457 28.693 18.9985 28.573 19 28.4487C19.0015 28.3244 19.0515 28.2055 19.1394 28.1176L19.4849 27.7726C19.7127 27.5463 20.0092 27.4021 20.3278 27.3624C20.6464 27.3228 20.9692 27.39 21.2454 27.5536C21.3409 27.6097 21.4523 27.6326 21.5622 27.6185C21.672 27.6045 21.7741 27.5544 21.8524 27.4761L23.5804 25.7481L24.2544 26.4221L22.5264 28.1501ZM30.8439 30.0956C30.9434 30.1951 30.9992 30.3299 30.9992 30.4706C30.9992 30.6112 30.9434 30.7461 30.8439 30.8456C30.7429 30.9419 30.6086 30.9957 30.4689 30.9957C30.3293 30.9957 30.195 30.9419 30.0939 30.8456L23.1309 23.8821C23.3941 23.6456 23.6444 23.3952 23.8809 23.1321L30.8439 30.0956ZM28.1499 22.5266L26.4219 24.2541L25.7484 23.5806L27.4759 21.8526C27.5543 21.7743 27.6045 21.6723 27.6187 21.5624C27.6328 21.4525 27.61 21.3411 27.5539 21.2456C27.3902 20.9693 27.3228 20.6465 27.3624 20.3277C27.4019 20.009 27.5461 19.7125 27.7724 19.4846L28.1174 19.1396C28.2056 19.0519 28.3245 19.002 28.4488 19.0005C28.5732 18.999 28.6932 19.046 28.7834 19.1316L28.4464 19.4681C28.3092 19.6051 28.2003 19.7678 28.126 19.947C28.0516 20.1261 28.0134 20.3181 28.0134 20.5121C28.0134 20.706 28.0516 20.8981 28.126 21.0772C28.2003 21.2563 28.3092 21.4191 28.4464 21.5561C28.7276 21.8246 29.1014 21.9745 29.4902 21.9745C29.879 21.9745 30.2528 21.8246 30.5339 21.5561L30.8709 21.2196C30.9567 21.3096 31.0039 21.4296 31.0024 21.554C31.0009 21.6783 30.9508 21.7971 30.8629 21.8851L30.5174 22.2301C30.2896 22.4563 29.9932 22.6006 29.6746 22.6402C29.356 22.6799 29.0332 22.6126 28.7569 22.4491C28.6615 22.3929 28.5501 22.3701 28.4402 22.3841C28.3303 22.3982 28.2282 22.4483 28.1499 22.5266Z" fill="black"/>
<path d="M30.5 10H29.6655L16.3 0.1C16.2135 0.0350889 16.1082 0 16 0C15.8918 0 15.7865 0.0350889 15.7 0.1L2.3345 10H1.5C1.10218 10 0.720644 10.158 0.43934 10.4393C0.158035 10.7206 0 11.1022 0 11.5L0 12.5C0 12.8978 0.158035 13.2794 0.43934 13.5607C0.720644 13.842 1.10218 14 1.5 14H2V26.5C2 26.6326 2.05268 26.7598 2.14645 26.8536C2.24021 26.9473 2.36739 27 2.5 27C2.63261 27 2.75979 26.9473 2.85355 26.8536C2.94732 26.7598 3 26.6326 3 26.5V14H23.5C23.6326 14 23.7598 13.9473 23.8536 13.8536C23.9473 13.7598 24 13.6326 24 13.5C24 13.3674 23.9473 13.2402 23.8536 13.1464C23.7598 13.0527 23.6326 13 23.5 13H1.5C1.36739 13 1.24021 12.9473 1.14645 12.8536C1.05268 12.7598 1 12.6326 1 12.5V11.5C1 11.3674 1.05268 11.2402 1.14645 11.1464C1.24021 11.0527 1.36739 11 1.5 11H30.5C30.6326 11 30.7598 11.0527 30.8536 11.1464C30.9473 11.2402 31 11.3674 31 11.5V12.5C31 12.6326 30.9473 12.7598 30.8536 12.8536C30.7598 12.9473 30.6326 13 30.5 13H25.5C25.3674 13 25.2402 13.0527 25.1464 13.1464C25.0527 13.2402 25 13.3674 25 13.5C25 13.6326 25.0527 13.7598 25.1464 13.8536C25.2402 13.9473 25.3674 14 25.5 14H29V16.5C29 16.6326 29.0527 16.7598 29.1464 16.8536C29.2402 16.9473 29.3674 17 29.5 17C29.6326 17 29.7598 16.9473 29.8536 16.8536C29.9473 16.7598 30 16.6326 30 16.5V14H30.5C30.8978 14 31.2794 13.842 31.5607 13.5607C31.842 13.2794 32 12.8978 32 12.5V11.5C32 11.1022 31.842 10.7206 31.5607 10.4393C31.2794 10.158 30.8978 10 30.5 10ZM4.015 10L16 1.1225L27.985 10H4.015Z" fill="black"/>
</g>
<defs>
<clipPath id="clip0_4883_319">
<rect width="32" height="32" fill="white"/>
</clipPath>
</defs>
</svg>
