<svg width="32" height="32" viewBox="0 0 32 32" fill="none" xmlns="http://www.w3.org/2000/svg">
<g clip-path="url(#clip0_4346_95)">
<path d="M31.718 15.4093L30.1514 10.6873C29.7447 9.45997 28.618 8.66664 27.282 8.66664H23.0874L23.2407 7.41664C23.2758 7.15499 23.2549 6.88886 23.1794 6.6359C23.1039 6.38293 22.9755 6.1489 22.8027 5.9493C22.6274 5.75373 22.4125 5.59766 22.1723 5.49146C21.9321 5.38526 21.672 5.33135 21.4094 5.3333H5.25138C4.18471 5.3333 3.21671 6.1953 3.09338 7.24864L3.00804 7.9153C2.99691 8.00215 3.003 8.09034 3.02596 8.17484C3.04892 8.25933 3.0883 8.33848 3.14185 8.40775C3.1954 8.47703 3.26207 8.53507 3.33806 8.57858C3.41405 8.62208 3.49786 8.65019 3.58471 8.6613C3.6717 8.67344 3.76025 8.66807 3.84514 8.64551C3.93003 8.62296 4.00956 8.58366 4.07905 8.52994C4.14855 8.47622 4.20661 8.40916 4.24982 8.33269C4.29304 8.25622 4.32054 8.17188 4.33071 8.08464L4.41671 7.41064C4.46271 7.01397 4.85271 6.66664 5.25138 6.66664H21.4094C21.5694 6.66664 21.7087 6.7253 21.8027 6.8313C21.8511 6.8891 21.8865 6.95667 21.9064 7.02938C21.9263 7.10209 21.9303 7.17824 21.918 7.25264L20.3567 20.0006H2.85538C2.85739 19.8393 2.80012 19.6829 2.69444 19.561C2.58876 19.4391 2.44202 19.3602 2.28204 19.3393C2.19516 19.3283 2.10696 19.3346 2.02251 19.3578C1.93806 19.381 1.85902 19.4206 1.78995 19.4745C1.72087 19.5283 1.66312 19.5952 1.62 19.6715C1.57689 19.7477 1.54926 19.8317 1.53871 19.9186L1.29004 21.9233C1.25673 22.1859 1.27944 22.4525 1.35666 22.7056C1.43388 22.9588 1.56386 23.1927 1.73804 23.392C1.91175 23.5865 2.12519 23.7416 2.36395 23.8466C2.60272 23.9516 2.86123 24.0041 3.12204 24.0006H4.41271C4.42271 24.6626 4.64138 25.28 5.07204 25.7653C5.58604 26.3466 6.31804 26.6673 7.13138 26.6673C8.65671 26.6673 10.0434 25.4906 10.3554 24.0006H21.9067C21.9167 24.6626 22.1354 25.2793 22.5647 25.7646C23.0794 26.3466 23.8114 26.6673 24.6254 26.6673C26.15 26.6673 27.5367 25.4906 27.8494 24.0006H29.2847C30.3634 24.0006 31.3114 23.1573 31.4427 22.082L31.9547 17.9066C32.0632 17.0672 31.9825 16.2142 31.7187 15.41L31.718 15.4093ZM30.288 15.3333H26.2707L26.5874 12.748C26.592 12.714 26.6467 12.6666 26.674 12.6666H29.4034L30.288 15.3333ZM22.9247 9.99997H27.2827C28.046 9.99997 28.6594 10.424 28.886 11.1073L28.9614 11.3333H26.674C25.9694 11.3333 25.3507 11.8833 25.2647 12.5853L24.938 15.252C24.9151 15.4298 24.9301 15.6105 24.9822 15.7821C25.0342 15.9536 25.1221 16.1122 25.24 16.2473C25.476 16.5133 25.8194 16.666 26.184 16.666H30.6334C30.6757 17.0239 30.675 17.3856 30.6314 17.7433L30.3547 19.9993H21.6994L22.924 9.9993L22.9247 9.99997ZM22.1914 22.6666H21.3727L21.536 21.3333H23.2787C22.8099 21.6792 22.4359 22.1378 22.1914 22.6666ZM20.03 22.6666H10.3374C10.2355 22.2606 10.0388 21.8845 9.76338 21.5693C9.68471 21.4806 9.59271 21.41 9.50471 21.3333H20.194L20.03 22.6666ZM4.69138 22.6666H3.12138C3.04889 22.6693 2.97668 22.6563 2.90971 22.6285C2.84273 22.6006 2.78258 22.5586 2.73338 22.5053C2.68433 22.4474 2.6482 22.3796 2.62739 22.3066C2.60658 22.2336 2.60158 22.1571 2.61271 22.082L2.70538 21.3333H5.76204C5.29631 21.6783 4.92734 22.1375 4.69071 22.6666H4.69138ZM9.08871 23.5853C8.97271 24.5333 8.07604 25.3333 7.13071 25.3333C6.70404 25.3333 6.32804 25.1726 6.06938 24.8806C5.80671 24.5846 5.69204 24.182 5.74471 23.748C5.86138 22.8 6.75804 22 7.70338 22C8.13004 22 8.50671 22.1606 8.76471 22.4526C9.02738 22.7486 9.14204 23.1513 9.08871 23.5853ZM26.5827 23.5853C26.466 24.5333 25.5694 25.3333 24.6247 25.3333C24.198 25.3333 23.8214 25.1726 23.5627 24.8806C23.3 24.5846 23.1854 24.182 23.2387 23.748C23.3554 22.8 24.252 22 25.1967 22C25.6234 22 26 22.1606 26.2587 22.4526C26.5214 22.7486 26.636 23.1513 26.5827 23.5853ZM29.2847 22.6666H27.8314C27.7295 22.2606 27.5328 21.8845 27.2574 21.5693C27.1787 21.4806 27.0867 21.41 26.9987 21.3333H30.192L30.12 21.9186C30.0714 22.3173 29.6807 22.6666 29.2847 22.6666Z" fill="black"/>
<path d="M6.02 17.3333C6.02 17.1565 5.94976 16.987 5.82474 16.8619C5.69971 16.7369 5.53014 16.6667 5.35333 16.6667H0.666667C0.489856 16.6667 0.320286 16.7369 0.195262 16.8619C0.0702379 16.987 0 17.1565 0 17.3333C0 17.5101 0.0702379 17.6797 0.195262 17.8047C0.320286 17.9298 0.489856 18 0.666667 18H5.35333C5.53014 18 5.69971 17.9298 5.82474 17.8047C5.94976 17.6797 6.02 17.5101 6.02 17.3333ZM2.72467 13.3333C2.54786 13.3333 2.37829 13.4036 2.25326 13.5286C2.12824 13.6536 2.058 13.8232 2.058 14C2.058 14.1768 2.12824 14.3464 2.25326 14.4714C2.37829 14.5964 2.54786 14.6667 2.72467 14.6667H5.76533C5.94214 14.6667 6.11171 14.5964 6.23674 14.4714C6.36176 14.3464 6.432 14.1768 6.432 14C6.432 13.8232 6.36176 13.6536 6.23674 13.5286C6.11171 13.4036 5.94214 13.3333 5.76533 13.3333H2.72467ZM1.45 11.3333H6.83667C7.01348 11.3333 7.18305 11.2631 7.30807 11.1381C7.43309 11.013 7.50333 10.8435 7.50333 10.6667C7.50333 10.4899 7.43309 10.3203 7.30807 10.1953C7.18305 10.0702 7.01348 10 6.83667 10H1.45C1.27319 10 1.10362 10.0702 0.978595 10.1953C0.853571 10.3203 0.783333 10.4899 0.783333 10.6667C0.783333 10.8435 0.853571 11.013 0.978595 11.1381C1.10362 11.2631 1.27319 11.3333 1.45 11.3333Z" fill="black"/>
</g>
<defs>
<clipPath id="clip0_4346_95">
<rect width="32" height="32" fill="white"/>
</clipPath>
</defs>
</svg>
