<svg width="28" height="28" viewBox="0 0 28 28" fill="none" xmlns="http://www.w3.org/2000/svg">
<path opacity="0.2" d="M8.75 15.75V20.125C8.75 20.5891 8.56563 21.0342 8.23744 21.3624C7.90925 21.6906 7.46413 21.875 7 21.875H5.25C4.78587 21.875 4.34075 21.6906 4.01256 21.3624C3.68437 21.0342 3.5 20.5891 3.5 20.125V14H7C7.46413 14 7.90925 14.1844 8.23744 14.5126C8.56563 14.8408 8.75 15.2859 8.75 15.75ZM21 14C20.5359 14 20.0908 14.1844 19.7626 14.5126C19.4344 14.8408 19.25 15.2859 19.25 15.75V20.125C19.25 20.5891 19.4344 21.0342 19.7626 21.3624C20.0908 21.6906 20.5359 21.875 21 21.875H24.5V14H21Z" fill="#08203C"/>
<path d="M22.0817 5.97847C20.4926 4.38005 18.4647 3.28935 16.2551 2.84457C14.0455 2.3998 11.7536 2.62098 9.66978 3.48008C7.58598 4.33918 5.80412 5.79753 4.54998 7.67033C3.29584 9.54314 2.62588 11.7461 2.625 14V20.125C2.625 20.8212 2.90156 21.4889 3.39384 21.9812C3.88613 22.4735 4.55381 22.75 5.25 22.75H7C7.69619 22.75 8.36387 22.4735 8.85616 21.9812C9.34844 21.4889 9.625 20.8212 9.625 20.125V15.75C9.625 15.0538 9.34844 14.3862 8.85616 13.8939C8.36387 13.4016 7.69619 13.125 7 13.125H4.41438C4.58312 11.3006 5.26841 9.56203 6.38993 8.11314C7.51145 6.66426 9.02273 5.56506 10.7466 4.9444C12.4705 4.32373 14.3357 4.20731 16.1234 4.60877C17.9111 5.01024 19.5473 5.91295 20.8403 7.21112C22.4207 8.79958 23.3927 10.8928 23.5867 13.125H21C20.3038 13.125 19.6361 13.4016 19.1438 13.8939C18.6516 14.3862 18.375 15.0538 18.375 15.75V20.125C18.375 20.8212 18.6516 21.4889 19.1438 21.9812C19.6361 22.4735 20.3038 22.75 21 22.75H23.625C23.625 23.4462 23.3484 24.1139 22.8562 24.6062C22.3639 25.0985 21.6962 25.375 21 25.375H14.875C14.6429 25.375 14.4204 25.4672 14.2563 25.6313C14.0922 25.7954 14 26.018 14 26.25C14 26.4821 14.0922 26.7047 14.2563 26.8687C14.4204 27.0328 14.6429 27.125 14.875 27.125H21C22.1603 27.125 23.2731 26.6641 24.0936 25.8436C24.9141 25.0232 25.375 23.9104 25.375 22.75V14C25.3807 12.5121 25.0927 11.0376 24.5276 9.66111C23.9625 8.28463 23.1313 7.03318 22.0817 5.97847ZM7 14.875C7.23206 14.875 7.45462 14.9672 7.61872 15.1313C7.78281 15.2954 7.875 15.518 7.875 15.75V20.125C7.875 20.3571 7.78281 20.5797 7.61872 20.7437C7.45462 20.9078 7.23206 21 7 21H5.25C5.01794 21 4.79538 20.9078 4.63128 20.7437C4.46719 20.5797 4.375 20.3571 4.375 20.125V14.875H7ZM21 21C20.7679 21 20.5454 20.9078 20.3813 20.7437C20.2172 20.5797 20.125 20.3571 20.125 20.125V15.75C20.125 15.518 20.2172 15.2954 20.3813 15.1313C20.5454 14.9672 20.7679 14.875 21 14.875H23.625V21H21Z" fill="#08203C"/>
</svg>
