<svg width="28" height="28" viewBox="0 0 28 28" fill="none" xmlns="http://www.w3.org/2000/svg">
<path opacity="0.2" d="M24.5 12.9402V21.875C24.5 22.1071 24.4078 22.3297 24.2437 22.4937C24.0796 22.6578 23.8571 22.75 23.625 22.75H4.375C4.14294 22.75 3.92038 22.6578 3.75628 22.4937C3.59219 22.3297 3.5 22.1071 3.5 21.875V12.9402C6.69104 14.7862 10.3135 15.7556 14 15.75C17.6866 15.7559 21.3091 14.7865 24.5 12.9402Z" fill="#08203C"/>
<path d="M11.375 12.25C11.375 12.0179 11.4672 11.7954 11.6313 11.6313C11.7954 11.4672 12.0179 11.375 12.25 11.375H15.75C15.9821 11.375 16.2046 11.4672 16.3687 11.6313C16.5328 11.7954 16.625 12.0179 16.625 12.25C16.625 12.4821 16.5328 12.7046 16.3687 12.8687C16.2046 13.0328 15.9821 13.125 15.75 13.125H12.25C12.0179 13.125 11.7954 13.0328 11.6313 12.8687C11.4672 12.7046 11.375 12.4821 11.375 12.25ZM25.375 7.875V21.875C25.375 22.3391 25.1906 22.7842 24.8624 23.1124C24.5342 23.4406 24.0891 23.625 23.625 23.625H4.375C3.91087 23.625 3.46575 23.4406 3.13756 23.1124C2.80937 22.7842 2.625 22.3391 2.625 21.875V7.875C2.625 7.41087 2.80937 6.96575 3.13756 6.63756C3.46575 6.30937 3.91087 6.125 4.375 6.125H8.75V5.25C8.75 4.55381 9.02656 3.88613 9.51884 3.39384C10.0111 2.90156 10.6788 2.625 11.375 2.625H16.625C17.3212 2.625 17.9889 2.90156 18.4812 3.39384C18.9734 3.88613 19.25 4.55381 19.25 5.25V6.125H23.625C24.0891 6.125 24.5342 6.30937 24.8624 6.63756C25.1906 6.96575 25.375 7.41087 25.375 7.875ZM10.5 6.125H17.5V5.25C17.5 5.01794 17.4078 4.79538 17.2437 4.63128C17.0796 4.46719 16.8571 4.375 16.625 4.375H11.375C11.1429 4.375 10.9204 4.46719 10.7563 4.63128C10.5922 4.79538 10.5 5.01794 10.5 5.25V6.125ZM4.375 7.875V12.4272C7.32859 14.0341 10.6376 14.8756 14 14.875C17.3625 14.8756 20.6716 14.0337 23.625 12.4261V7.875H4.375ZM23.625 21.875V14.397C20.6282 15.863 17.3361 16.6251 14 16.625C10.6639 16.6256 7.37179 15.864 4.375 14.3981V21.875H23.625Z" fill="#08203C"/>
</svg>
