<svg width="28" height="28" viewBox="0 0 28 28" fill="none" xmlns="http://www.w3.org/2000/svg">
<path opacity="0.2" d="M10.5 10.5V17.5H4.375V4.375H17.5V10.5H10.5ZM17.5 10.5V17.5H10.5V23.625H23.625V10.5H17.5Z" fill="#08203C"/>
<path d="M23.625 9.625H18.375V4.375C18.375 4.14294 18.2828 3.92038 18.1187 3.75628C17.9546 3.59219 17.7321 3.5 17.5 3.5H4.375C4.14294 3.5 3.92038 3.59219 3.75628 3.75628C3.59219 3.92038 3.5 4.14294 3.5 4.375V17.5C3.5 17.7321 3.59219 17.9546 3.75628 18.1187C3.92038 18.2828 4.14294 18.375 4.375 18.375H9.625V23.625C9.625 23.8571 9.71719 24.0796 9.88128 24.2437C10.0454 24.4078 10.2679 24.5 10.5 24.5H23.625C23.8571 24.5 24.0796 24.4078 24.2437 24.2437C24.4078 24.0796 24.5 23.8571 24.5 23.625V10.5C24.5 10.2679 24.4078 10.0454 24.2437 9.88128C24.0796 9.71719 23.8571 9.625 23.625 9.625ZM5.25 16.625V5.25H16.625V9.625H10.5C10.2679 9.625 10.0454 9.71719 9.88128 9.88128C9.71719 10.0454 9.625 10.2679 9.625 10.5V16.625H5.25ZM16.625 11.375V16.625H11.375V11.375H16.625ZM22.75 22.75H11.375V18.375H17.5C17.7321 18.375 17.9546 18.2828 18.1187 18.1187C18.2828 17.9546 18.375 17.7321 18.375 17.5V11.375H22.75V22.75Z" fill="#08203C"/>
</svg>
