<svg width="28" height="28" viewBox="0 0 28 28" fill="none" xmlns="http://www.w3.org/2000/svg">
<path opacity="0.2" d="M23.6249 22.75H4.37492C4.06788 22.7497 3.76633 22.6686 3.50054 22.5149C3.23476 22.3612 3.0141 22.1402 2.86072 21.8742C2.70733 21.6083 2.62663 21.3066 2.62671 20.9996C2.62679 20.6925 2.70765 20.3909 2.86117 20.125L12.4862 3.50001C12.6399 3.2343 12.8607 3.0137 13.1266 2.86033C13.3925 2.70696 13.6941 2.62622 14.001 2.62622C14.308 2.62622 14.6095 2.70696 14.8754 2.86033C15.1413 3.0137 15.3622 3.2343 15.5159 3.50001L25.1409 20.125C25.2945 20.3911 25.3753 20.6929 25.3753 21.0001C25.3753 21.3073 25.2944 21.6091 25.1408 21.8752C24.9871 22.1412 24.7661 22.3621 24.5001 22.5157C24.234 22.6693 23.9321 22.7501 23.6249 22.75Z" fill="#08203C"/>
<path d="M10.5001 22.75C10.5001 22.9821 10.4079 23.2047 10.2438 23.3688C10.0797 23.5329 9.85718 23.625 9.62511 23.625H4.37511C3.91446 23.6248 3.462 23.5033 3.06317 23.2728C2.66434 23.0423 2.3332 22.7109 2.10299 22.3119C1.87279 21.9129 1.75164 21.4603 1.75171 20.9996C1.75178 20.539 1.87307 20.0865 2.10339 19.6875L5.85386 13.2071L4.31714 13.6172C4.20583 13.647 4.08974 13.6545 3.97552 13.6394C3.8613 13.6242 3.75118 13.5867 3.65145 13.5291C3.45002 13.4125 3.30313 13.2208 3.24308 12.996C3.18303 12.7712 3.21475 12.5317 3.33126 12.3303C3.44777 12.1289 3.63952 11.982 3.86433 11.9219L7.44855 10.9627C7.55958 10.9329 7.67538 10.9253 7.78935 10.9403C7.90332 10.9553 8.01321 10.9927 8.11275 11.0501C8.21229 11.1076 8.29953 11.1842 8.36948 11.2754C8.43943 11.3666 8.49072 11.4707 8.52042 11.5818L9.48183 15.166C9.5122 15.2775 9.52016 15.394 9.50527 15.5086C9.49037 15.6232 9.45291 15.7338 9.39504 15.8339C9.33717 15.9339 9.26005 16.0215 9.16813 16.0916C9.0762 16.1617 8.9713 16.2129 8.85949 16.2422C8.78519 16.2616 8.70876 16.2715 8.63199 16.2718C8.4395 16.2716 8.25244 16.2079 8.09979 16.0907C7.94714 15.9734 7.83742 15.8091 7.78761 15.6232L7.37199 14.0755L3.62152 20.5625C3.5449 20.6953 3.50447 20.8458 3.50428 20.999C3.5041 21.1522 3.54416 21.3028 3.62047 21.4357C3.69677 21.5686 3.80664 21.6792 3.93907 21.7563C4.07151 21.8334 4.22187 21.8743 4.37511 21.875H9.62511C9.85718 21.875 10.0797 21.9672 10.2438 22.1313C10.4079 22.2954 10.5001 22.518 10.5001 22.75ZM25.8925 19.6875L23.3615 15.3125C23.2404 15.1221 23.0505 14.9858 22.8313 14.9321C22.6121 14.8784 22.3806 14.9115 22.1852 15.0244C21.9898 15.1374 21.8456 15.3214 21.7827 15.5382C21.7199 15.7549 21.7432 15.9876 21.8478 16.1875L24.3787 20.5625C24.4553 20.6953 24.4958 20.8458 24.4959 20.999C24.4961 21.1522 24.4561 21.3028 24.3798 21.4357C24.3035 21.5686 24.1936 21.6792 24.0611 21.7563C23.9287 21.8334 23.7784 21.8743 23.6251 21.875H16.1121L17.2431 20.7441C17.4073 20.5801 17.4996 20.3575 17.4997 20.1254C17.4998 19.8933 17.4077 19.6707 17.2436 19.5065C17.0796 19.3423 16.857 19.25 16.625 19.2499C16.3929 19.2498 16.1702 19.3419 16.006 19.506L13.381 22.131C13.2997 22.2122 13.2352 22.3087 13.1911 22.415C13.1471 22.5212 13.1244 22.6351 13.1244 22.75C13.1244 22.865 13.1471 22.9789 13.1911 23.0851C13.2352 23.1913 13.2997 23.2878 13.381 23.3691L16.006 25.9941C16.0873 26.0753 16.1838 26.1397 16.29 26.1837C16.3962 26.2276 16.51 26.2502 16.625 26.2501C16.7399 26.2501 16.8537 26.2274 16.9598 26.1834C17.066 26.1394 17.1624 26.0749 17.2436 25.9936C17.3249 25.9123 17.3893 25.8158 17.4332 25.7096C17.4771 25.6034 17.4997 25.4896 17.4997 25.3747C17.4996 25.2597 17.4769 25.146 17.4329 25.0398C17.3889 24.9336 17.3244 24.8372 17.2431 24.756L16.1121 23.625H23.6251C24.0858 23.6248 24.5382 23.5033 24.9371 23.2728C25.3359 23.0423 25.667 22.7109 25.8972 22.3119C26.1274 21.9129 26.2486 21.4603 26.2485 20.9996C26.2484 20.539 26.1272 20.0865 25.8968 19.6875H25.8925ZM14.0001 3.50004C14.1539 3.4985 14.3053 3.53829 14.4384 3.61525C14.5715 3.69221 14.6816 3.80352 14.757 3.93754L18.5075 10.418L16.9675 10.0046C16.7461 9.95261 16.5131 9.98888 16.318 10.1057C16.1229 10.2225 15.9809 10.4108 15.9222 10.6305C15.8635 10.8502 15.8926 11.0841 16.0034 11.2827C16.1142 11.4813 16.2979 11.629 16.5157 11.6944L20.101 12.6558C20.175 12.6752 20.251 12.6852 20.3275 12.6854C20.5199 12.6852 20.707 12.6215 20.8596 12.5043C21.0123 12.387 21.122 12.2227 21.1718 12.0368L22.1332 8.45036C22.1662 8.33838 22.1765 8.22094 22.1634 8.10494C22.1504 7.98894 22.1142 7.87673 22.0571 7.77491C22 7.6731 21.9231 7.58374 21.8309 7.5121C21.7387 7.44046 21.6332 7.38799 21.5204 7.35778C21.4077 7.32756 21.29 7.32022 21.1744 7.33617C21.0587 7.35212 20.9474 7.39106 20.8471 7.45067C20.7467 7.51029 20.6593 7.58939 20.59 7.68331C20.5206 7.77723 20.4708 7.88407 20.4434 7.99754L20.0278 9.54739L16.2718 3.06254C16.0412 2.66424 15.71 2.33357 15.3112 2.10369C14.9125 1.87381 14.4604 1.75281 14.0001 1.75281C13.5399 1.75281 13.0877 1.87381 12.689 2.10369C12.2903 2.33357 11.959 2.66424 11.7284 3.06254L9.19527 7.43754C9.08643 7.63798 9.06015 7.87298 9.12204 8.0925C9.18392 8.31202 9.32907 8.4987 9.52656 8.61278C9.72406 8.72685 9.95829 8.75931 10.1794 8.70323C10.4004 8.64715 10.5909 8.50697 10.7101 8.31254L13.2432 3.93754C13.3187 3.80352 13.4287 3.69221 13.5618 3.61525C13.695 3.53829 13.8463 3.4985 14.0001 3.50004Z" fill="#08203C"/>
</svg>
